<svg xmlns="http://www.w3.org/2000/svg" width="154.27846mm" height="202.12296mm" viewBox="0 0 154.27846 202.12296"><path d="M919.854 631.598c33.292 14.73 16.164 42.903 20.506 53.54-8.323-3.158-18.334.235-20.746 2.222-2.414-1.987-12.424-5.38-20.747-2.222 4.344-10.637-12.305-38.81 20.987-53.54z" style="fill:#254aa5;fill-opacity:1;fill-rule:nonzero;stroke:none" transform="matrix(3.62473 0 0 -3.62473 -3256.602 2491.494)"/><path d="m911.2 677.005.622-1.914h2.01l-1.626-1.182.621-1.913-1.628 1.182-1.626-1.182.62 1.913-1.627 1.182h2.01l.623 1.914zM928.58 677.005l.622-1.914h2.01l-1.627-1.182.622-1.913-1.628 1.182-1.628-1.182.623 1.913-1.628 1.182h2.011l.622 1.914zM929.813 669.3l-9.05-9.052 4.01-14.089-12.545-2.26 1.954 13.677-1.954 2.057 2.467 2.262-2.674 1.748 17.792 5.657z" style="fill:#fff;fill-opacity:1;fill-rule:nonzero;stroke:none" transform="matrix(3.62473 0 0 -3.62473 -3256.602 2491.494)"/><path d="M919.837 634.951c28.384 12.958 13.78 37.742 17.483 47.1-7.096-2.776-15.633.207-17.688 1.954-2.057-1.747-10.592-4.73-17.69-1.953 3.704-9.36-10.488-34.143 17.895-47.1z" style="fill:none;stroke:#fff;stroke-width:1.9122;stroke-linecap:butt;stroke-linejoin:miter;stroke-miterlimit:4;stroke-dasharray:none;stroke-opacity:1" transform="matrix(3.62473 0 0 -3.62473 -3256.602 2491.494)"/></svg>