<svg xmlns="http://www.w3.org/2000/svg" xml:space="preserve" width="507.79968" height="589.04633" viewBox="0 0 507.7997 589.04632"><g style="stroke:none;stroke-width:.674467"><path d="M289.483 457.22c50.678-20.692 82.874-76.038 82.874-143.811 0-68.436-37.36-126.72-88.813-146.874-12.488-4.894-25.807-8.12-40.973 4.416-3.309-2.508-19.029-12.217-34.884-7.17-53.91 17.176-92.2 79.528-92.2 149.628 0 65.29 30.055 119.359 77.855 141.88 4.355.74 9.31 3.589 15.096 4.158 11.043 1.09 23.804-.912 32.012-5.113 0 0 15.527 6.395 34.818 5.794 4.452-.138 9.572-2.053 14.215-2.909" style="fill:#241f21;fill-opacity:1;fill-rule:evenodd;stroke:none;stroke-width:.674467" transform="matrix(1.97687 0 0 -1.97687 -228.301 909.692)"/><path d="M289.483 457.22c50.678-20.692 82.874-76.038 82.874-143.811 0-68.436-37.36-126.72-88.813-146.874-12.488-4.894-25.807-8.12-40.973 4.416-3.309-2.508-19.029-12.217-34.884-7.17-53.91 17.176-92.2 79.528-92.2 149.628 0 65.29 30.055 119.359 77.855 141.88 4.355.74 9.31 3.589 15.096 4.158 11.043 1.09 23.804-.912 32.012-5.113 0 0 15.527 6.395 34.818 5.794 4.452-.138 9.572-2.053 14.215-2.909" style="fill:none;stroke:none;stroke-width:.209085;stroke-linecap:butt;stroke-linejoin:miter;stroke-miterlimit:2.6131;stroke-dasharray:none;stroke-opacity:1" transform="matrix(1.97687 0 0 -1.97687 -228.301 909.692)"/><path d="M229.525 335.035h26.663v6.593h-26.663zm26.663-16.024h-26.663v7.582h26.663zm29.864-55.54v55.54h-15.794v37.654h8.87c3.809 0 6.924 2.784 6.924 6.191s-3.115 6.192-6.924 6.192h-29.236v11c0 3.804-3.164 6.92-7.035 6.92s-7.036-3.114-7.036-6.92v-11h-29.235c-3.81 0-6.924-2.784-6.924-6.192 0-3.407 3.114-6.191 6.924-6.191h8.87V319.01h-15.794v-55.54c0-3.81 3.164-6.922 7.035-6.922s7.034 3.115 7.034 6.922v41.297h58.25v-41.297c0-3.81 3.165-6.922 7.035-6.922s7.036 3.115 7.036 6.922m-56.527 86.602h26.663v6.592h-26.663z" style="fill:#fff;fill-opacity:1;fill-rule:evenodd;stroke:none;stroke-width:.674467" transform="matrix(1.97687 0 0 -1.97687 -228.301 909.692)"/><path d="M238.254 288.17h9.205c2.896 0 5.262-2.338 5.262-5.195v-7.223c0-2.86-2.366-5.197-5.262-5.197h-9.205c-2.896 0-5.262 2.338-5.262 5.197v7.223c0 2.857 2.366 5.195 5.262 5.195m-5.997 8.78h21.2c5.777 0 9.098-3.264 9.098-8.97v-17.238c0-5.703-3.326-8.967-9.098-8.967h-21.2c-5.772 0-9.098 3.262-9.098 8.967v17.238c0 5.71 3.32 8.97 9.098 8.97" style="fill:#fff;fill-opacity:1;fill-rule:evenodd;stroke:none;stroke-width:.674467" transform="matrix(1.97687 0 0 -1.97687 -228.301 909.692)"/><path d="M272.575 438.213c-1.046-1.493 5.851-9.687 16.731-14.683s19.558-7.729 20.839-4.796c1.283 2.929-5.778 8.558-15.312 13.935s-21.21 7.037-22.258 5.544m48.502-134.984c-1.307-.762-1.74-10.305 3.458-17.983 5.196-7.674 11.805-12.742 15.414-9.889 3.606 2.858 1.74 10.309-3.46 17.985-5.197 7.677-14.107 10.652-15.412 9.887m-15.357 75.77c-1.425-1.292 2.396-11.798 10.875-20.001 8.479-8.206 15.604-12.233 18.04-10.165 1.006.852.896 2.723-.163 5.197-3.592 3.747-7.409 8.688-10.688 13.81-8.257 7.787-16.679 12.413-18.064 11.16m33.556-15.872a180 180 0 0 1-8.128 9.787 72 72 0 0 1-2.035 2.19c-.455.92-.87 1.854-1.235 2.781-2.68 6.838-1.095 13.666.541 14.992 5.176-8.931 9.506-18.7 12.84-29.117-.253-.363-.577-.604-.997-.691-.296-.064-.63-.037-.986.058m-69.596-153.18c-2.52.582-4.312 2.194-3.99 3.59.324 1.395 2.642 2.055 5.162 1.473 2.519-.584 4.31-2.2 3.987-3.592-.322-1.39-2.64-2.055-5.16-1.47m-17.976 235.178c-4.322-3.813 21.361-27.783 40.562-35.338 11.027-4.335 17.697-5.91 22.026-5.86-.672-4.811-.408-11.258 1.06-17.527-15.661 10.17-31.36 12.855-33.592 10.833-3.009-2.727 9.385-29.524 27.281-46.84 13.2-12.778 30.552-24.045 39.58-25.656.252-3.769.386-7.583.386-11.434 0-7.345-.476-14.56-1.373-21.59a100 100 0 0 1-5.148 8.454c-11.74 17.338-31.87 24.067-34.82 22.342-2.948-1.727-3.928-23.287 7.812-40.626 7.704-11.375 16.775-20.217 24.408-23.13-3.936-11.218-9.044-21.636-15.13-30.987-.444 20.963-11.85 37.85-25.777 37.85-1.844 0-3.641-.3-5.379-.86 8.77-6.26 14.864-19.799 14.864-35.428 0-12.11-2.662-22.56-9.99-29.744-5.183-4.111-10.604-7.703-16.245-10.695-4.027.05-7.556 1.357-9.05 3.558-2.615 4.352-1.407 10.16 4.315 12.838 5.722 2.68 9.93 1.262 13.633.762-2.584 1.666-5.326 3.644-7.464 6.59-2.324 3.205-4.225 7.49-8.09 10.884q-.977.464-1.812.8v3.949c.066-.002.133-.008.2-.008 2.31 0 4.196 1.794 4.196 3.996 0 2.2-1.886 3.996-4.196 3.996s-4.195-1.795-4.195-3.996c0-1.266.628-2.397 1.599-3.13v-3.995c-2.65.699-4.1.345-5.795.314v4.527c1.831.426 3.197 2.006 3.197 3.883 0 2.2-1.886 3.996-4.196 3.996s-4.196-1.797-4.196-3.996c0-1.734 1.174-3.217 2.797-3.77v-4.718c-1.945-.182-3.669-.549-5.194-1.057v5.963c.858.737 1.398 1.799 1.398 2.98 0 2.202-1.885 3.999-4.196 3.999s-4.196-1.797-4.196-3.998 1.886-3.994 4.196-3.994c.134 0 .27 0 .4.013v-5.955c-6.638-3.34-8.606-9.814-9.39-14.34-1.065-6.148-.573-6.369-.043-9.888.542-7.235 4.115-14.272 9.552-19.334 4.217-5.15 16.619-9.35 27.203-4.286 45.42 20.254 78.065 74.446 78.065 137.831 0 44.835-16.34 85.07-41.972 111.949-2.645 3.56-6.64 7.49-12.518 11.696-21.896 15.684-50.451 11.985-54.773 8.176zM214.39 438.213c1.047-1.493-5.85-9.687-16.73-14.683s-19.558-7.729-20.84-4.796c-1.28 2.929 5.78 8.558 15.313 13.935s21.21 7.037 22.258 5.544m-48.502-134.984c1.307-.762 1.74-10.305-3.457-17.983-5.198-7.674-11.804-12.742-15.414-9.889-3.606 2.858-1.74 10.309 3.46 17.985 5.196 7.677 14.107 10.652 15.411 9.887m15.357 75.77c1.425-1.292-2.396-11.798-10.874-20.001-8.48-8.206-15.604-12.233-18.041-10.165-1.004.852-.896 2.723.165 5.197 3.59 3.747 7.407 8.688 10.688 13.81 8.255 7.787 16.678 12.413 18.062 11.16m-33.555-15.872a180 180 0 0 0 8.127 9.787 74 74 0 0 0 2.036 2.19c.456.92.869 1.854 1.233 2.781 2.683 6.838 1.097 13.666-.54 14.992-5.174-8.931-9.505-18.7-12.839-29.117.252-.363.578-.604.997-.691.295-.064.63-.037.986.058m69.596-153.18c2.52.582 4.312 2.194 3.989 3.59s-2.64 2.055-5.16 1.473c-2.52-.584-4.311-2.2-3.989-3.592.323-1.39 2.641-2.055 5.16-1.47m17.975 235.178c4.323-3.813-21.36-27.783-40.562-35.338-11.026-4.335-17.697-5.91-22.025-5.86.673-4.811.408-11.258-1.06-17.527 15.66 10.17 31.36 12.855 33.592 10.833 3.01-2.727-9.385-29.524-27.28-46.84-13.202-12.778-30.553-24.045-39.582-25.656a172 172 0 0 1-.387-11.434c0-7.345.476-14.56 1.376-21.59a99 99 0 0 0 5.146 8.454c11.74 17.338 31.872 24.067 34.82 22.342 2.948-1.727 3.93-23.287-7.811-40.626-7.703-11.375-16.776-20.217-24.409-23.13 3.938-11.218 9.045-21.636 15.13-30.987.444 20.963 11.852 37.85 25.777 37.85a17.5 17.5 0 0 0 5.38-.86c-8.77-6.26-14.864-19.799-14.864-35.428 0-12.11 2.662-22.56 9.99-29.744 5.182-4.111 10.603-7.703 16.244-10.695 4.028.05 7.556 1.357 9.05 3.558 2.617 4.352 1.408 10.16-4.314 12.838-5.722 2.68-9.931 1.262-13.632.762 2.582 1.666 5.325 3.644 7.463 6.59 2.323 3.205 4.224 7.49 8.09 10.884q.975.464 1.811.8v3.949c-.067-.002-.132-.008-.2-.008-2.31 0-4.196 1.794-4.196 3.996 0 2.2 1.886 3.996 4.197 3.996s4.195-1.795 4.195-3.996c0-1.266-.629-2.397-1.598-3.13v-3.995c2.649.699 4.098.345 5.794.314v4.527c-1.833.426-3.197 2.006-3.197 3.883 0 2.2 1.885 3.996 4.195 3.996 2.312 0 4.196-1.797 4.196-3.996 0-1.734-1.174-3.217-2.797-3.77v-4.718c1.945-.182 3.67-.549 5.196-1.057v5.963c-.86.737-1.4 1.799-1.4 2.98 0 2.202 1.886 3.999 4.196 3.999s4.195-1.797 4.195-3.998-1.885-3.994-4.195-3.994c-.133 0-.268 0-.4.013v-5.955c6.638-3.34 8.607-9.814 9.39-14.34 1.066-6.148.575-6.369.043-9.888-.542-7.235-4.114-14.272-9.55-19.334-4.219-5.15-16.62-9.35-27.205-4.286-45.419 20.254-78.065 74.446-78.065 137.831 0 44.835 16.34 85.07 41.973 111.949 2.645 3.56 6.64 7.49 12.519 11.696 21.895 15.684 50.449 11.985 54.771 8.176z" style="fill:#face45;fill-opacity:1;fill-rule:evenodd;stroke:none;stroke-width:.674467" transform="matrix(1.97687 0 0 -1.97687 -228.301 909.692)"/></g></svg>